<svg width="427" height="48" viewBox="0 0 427 48" fill="none" xmlns="http://www.w3.org/2000/svg">
<path d="M30.05 41.9167L15.1 28.5L30.05 15.0833L25.5 11L6 28.5L25.5 46L30.05 41.9167ZM46.95 41.9167L61.9 28.5L46.95 15.0833L51.5 11L71 28.5L51.5 46L46.95 41.9167Z" fill="white"/>
<path d="M89.6648 46.6136L95.5732 11.3636H104.719L103.985 15.8366H104.185C104.653 14.9687 105.265 14.1732 106.021 13.4499C106.789 12.7156 107.69 12.1314 108.725 11.6974C109.771 11.2524 110.928 11.0298 112.197 11.0298C113.888 11.0298 115.418 11.4805 116.787 12.3817C118.155 13.283 119.162 14.7017 119.808 16.6378C120.453 18.5739 120.52 21.0885 120.008 24.1818C119.518 27.1416 118.645 29.5951 117.387 31.5423C116.141 33.4895 114.672 34.9415 112.981 35.8984C111.301 36.8554 109.549 37.3338 107.724 37.3338C106.522 37.3338 105.482 37.1391 104.603 36.7496C103.724 36.3491 103.017 35.8094 102.483 35.1307C101.949 34.4408 101.582 33.6619 101.381 32.794H101.181L98.9112 46.6136H89.6648ZM102.45 24.1818C102.249 25.428 102.233 26.5073 102.4 27.4197C102.578 28.321 102.928 29.022 103.451 29.5227C103.985 30.0123 104.675 30.2571 105.521 30.2571C106.366 30.2571 107.123 30.0179 107.79 29.5394C108.458 29.0498 109.026 28.3544 109.493 27.4531C109.96 26.5407 110.305 25.4503 110.528 24.1818C110.728 22.9134 110.745 21.8285 110.578 20.9272C110.411 20.0148 110.071 19.3194 109.56 18.8409C109.048 18.3513 108.369 18.1065 107.523 18.1065C106.678 18.1065 105.904 18.3513 105.203 18.8409C104.514 19.3194 103.929 20.0148 103.451 20.9272C102.984 21.8285 102.65 22.9134 102.45 24.1818ZM134.007 37.4673C131.225 37.4673 128.933 36.9165 127.13 35.815C125.339 34.7023 124.082 33.1557 123.358 31.1751C122.635 29.1834 122.491 26.8745 122.924 24.2486C123.358 21.6226 124.265 19.3194 125.645 17.3388C127.025 15.3471 128.799 13.8004 130.969 12.6989C133.139 11.5862 135.62 11.0298 138.413 11.0298C141.184 11.0298 143.465 11.5862 145.256 12.6989C147.059 13.8004 148.322 15.3471 149.045 17.3388C149.779 19.3194 149.929 21.6226 149.495 24.2486C149.062 26.8745 148.149 29.1834 146.758 31.1751C145.367 33.1557 143.587 34.7023 141.417 35.815C139.259 36.9165 136.789 37.4673 134.007 37.4673ZM135.142 30.6577C135.943 30.6577 136.672 30.3962 137.328 29.8732C137.996 29.3503 138.563 28.6048 139.031 27.6367C139.509 26.6687 139.86 25.517 140.082 24.1818C140.305 22.8355 140.338 21.6838 140.182 20.7269C140.026 19.7589 139.704 19.0134 139.214 18.4904C138.725 17.9674 138.079 17.706 137.278 17.706C136.477 17.706 135.743 17.9674 135.075 18.4904C134.407 19.0134 133.84 19.7589 133.373 20.7269C132.905 21.6838 132.56 22.8355 132.338 24.1818C132.115 25.517 132.076 26.6687 132.221 27.6367C132.377 28.6048 132.699 29.3503 133.189 29.8732C133.69 30.3962 134.341 30.6577 135.142 30.6577ZM170.659 11.3636L169.524 18.0398H152.633L153.768 11.3636H170.659ZM158.041 5.22159H167.254L163.348 28.755C163.293 29.111 163.304 29.4115 163.382 29.6562C163.46 29.8899 163.616 30.0679 163.849 30.1903C164.094 30.3016 164.417 30.3572 164.817 30.3572C165.084 30.3572 165.412 30.3239 165.802 30.2571C166.191 30.1792 166.486 30.1236 166.687 30.0902L166.954 36.5661C166.486 36.6996 165.858 36.8498 165.068 37.0167C164.289 37.1947 163.382 37.3116 162.347 37.3672C160.188 37.4673 158.43 37.2392 157.073 36.6829C155.727 36.1265 154.792 35.2586 154.269 34.0792C153.757 32.8886 153.668 31.4032 154.002 29.6229L158.041 5.22159ZM182.38 22.5795L179.976 37H170.763L176.438 2.81818H185.317L183.114 16.2372H183.381C184.216 14.6016 185.384 13.3275 186.886 12.4151C188.388 11.4916 190.091 11.0298 191.993 11.0298C193.796 11.0298 195.298 11.4415 196.5 12.2649C197.701 13.0883 198.553 14.2232 199.053 15.6697C199.554 17.1162 199.649 18.7741 199.337 20.6435L196.6 37H187.387L189.79 22.5795C189.99 21.3111 189.829 20.3152 189.306 19.592C188.794 18.8687 187.954 18.5071 186.786 18.5071C186.029 18.5071 185.339 18.674 184.716 19.0078C184.104 19.3305 183.592 19.7978 183.181 20.4098C182.78 21.0107 182.513 21.7339 182.38 22.5795ZM219.574 25.7841L221.977 11.3636H231.191L226.918 37H218.172L218.973 32.1264H218.706C217.916 33.7621 216.737 35.0417 215.168 35.9652C213.61 36.8776 211.874 37.3338 209.96 37.3338C208.169 37.3338 206.672 36.9221 205.471 36.0987C204.269 35.2753 203.418 34.1404 202.917 32.6939C202.416 31.2474 202.316 29.5895 202.617 27.7202L205.354 11.3636H214.567L212.164 25.7841C211.974 27.0526 212.136 28.0484 212.648 28.7717C213.171 29.4949 214.011 29.8565 215.168 29.8565C215.936 29.8565 216.625 29.6952 217.237 29.3725C217.861 29.0387 218.372 28.5714 218.773 27.9705C219.185 27.3585 219.452 26.6297 219.574 25.7841ZM231.604 37L235.876 11.3636H244.822L244.021 16.2372H244.288C245.056 14.4347 246.018 13.1161 247.176 12.2816C248.333 11.4471 249.596 11.0298 250.964 11.0298C251.365 11.0298 251.749 11.0632 252.116 11.13C252.494 11.1856 252.867 11.2635 253.234 11.3636L251.899 19.2415C251.465 19.0746 250.925 18.9577 250.28 18.891C249.635 18.8131 249.062 18.7741 248.561 18.7741C247.671 18.7741 246.836 18.98 246.057 19.3917C245.29 19.7923 244.633 20.3597 244.088 21.0941C243.554 21.8174 243.198 22.6686 243.02 23.6477L240.817 37H231.604ZM257.866 37.4006C256.241 37.4006 254.845 37.1335 253.677 36.5994C252.519 36.0542 251.674 35.2308 251.14 34.1293C250.617 33.0166 250.5 31.6146 250.789 29.9233C251.023 28.5213 251.462 27.3252 252.108 26.3349C252.753 25.3446 253.554 24.5323 254.511 23.8981C255.468 23.2638 256.542 22.7798 257.732 22.446C258.934 22.1011 260.203 21.8786 261.538 21.7784C262.984 21.6671 264.158 21.5281 265.059 21.3611C265.961 21.1942 266.634 20.9661 267.079 20.6768C267.524 20.3875 267.791 19.9981 267.88 19.5085V19.4418C267.98 18.7741 267.802 18.2623 267.346 17.9062C266.901 17.5502 266.278 17.3722 265.477 17.3722C264.609 17.3722 263.858 17.5613 263.223 17.9396C262.6 18.3179 262.172 18.9077 261.938 19.7088H253.46C253.816 18.151 254.544 16.7157 255.646 15.4027C256.759 14.0786 258.233 13.0215 260.069 12.2315C261.916 11.4304 264.119 11.0298 266.678 11.0298C268.503 11.0298 270.105 11.2468 271.485 11.6808C272.865 12.1036 274.005 12.6989 274.907 13.4666C275.819 14.2232 276.459 15.1134 276.826 16.1371C277.204 17.1496 277.293 18.2512 277.093 19.4418L274.156 37H265.543L266.144 33.3949H265.944C265.276 34.3518 264.525 35.1251 263.691 35.7148C262.867 36.3046 261.966 36.733 260.987 37C260.019 37.267 258.979 37.4006 257.866 37.4006ZM261.872 31.5923C262.561 31.5923 263.24 31.4477 263.908 31.1584C264.575 30.8691 265.148 30.4518 265.627 29.9066C266.105 29.3614 266.411 28.6993 266.545 27.9205L266.879 25.7841C266.634 25.8842 266.361 25.9788 266.061 26.0678C265.772 26.1457 265.466 26.2236 265.143 26.3015C264.831 26.3794 264.497 26.4517 264.141 26.5185C263.796 26.5852 263.44 26.652 263.073 26.7188C262.339 26.83 261.721 27.0136 261.221 27.2695C260.72 27.5143 260.33 27.8203 260.052 28.1875C259.774 28.5436 259.602 28.9441 259.535 29.3892C259.435 30.0902 259.596 30.6354 260.019 31.0249C260.453 31.4032 261.07 31.5923 261.872 31.5923ZM282.83 11.3636H292.044L287.604 37.8679C287.226 40.1044 286.458 41.8569 285.301 43.1254C284.143 44.4049 282.669 45.3062 280.878 45.8292C279.097 46.3522 277.078 46.6136 274.819 46.6136C274.541 46.6136 274.263 46.6081 273.985 46.5969C273.695 46.5858 273.384 46.5691 273.05 46.5469L274.185 39.7372C274.374 39.7595 274.558 39.7762 274.736 39.7873C274.914 39.7984 275.086 39.804 275.253 39.804C276.355 39.804 277.133 39.6315 277.59 39.2866C278.046 38.9416 278.335 38.402 278.458 37.6676L282.83 11.3636ZM287.838 8.69318C286.591 8.69318 285.584 8.28149 284.817 7.4581C284.049 6.62358 283.765 5.63328 283.965 4.48722C284.166 3.31889 284.778 2.3286 285.801 1.51633C286.825 0.692945 287.96 0.28125 289.206 0.28125C290.463 0.28125 291.465 0.692945 292.21 1.51633C292.956 2.3286 293.234 3.31889 293.045 4.48722C292.867 5.63328 292.266 6.62358 291.242 7.4581C290.23 8.28149 289.095 8.69318 287.838 8.69318ZM310.958 25.7841L313.361 11.3636H322.574L318.302 37H309.556L310.357 32.1264H310.09C309.3 33.7621 308.12 35.0417 306.552 35.9652C304.994 36.8776 303.258 37.3338 301.344 37.3338C299.553 37.3338 298.056 36.9221 296.854 36.0987C295.653 35.2753 294.802 34.1404 294.301 32.6939C293.8 31.2474 293.7 29.5895 294 27.7202L296.738 11.3636H305.951L303.547 25.7841C303.358 27.0526 303.52 28.0484 304.031 28.7717C304.554 29.4949 305.394 29.8565 306.552 29.8565C307.319 29.8565 308.009 29.6952 308.621 29.3725C309.244 29.0387 309.756 28.5714 310.157 27.9705C310.568 27.3585 310.835 26.6297 310.958 25.7841ZM328.195 37.5341C326.893 37.5341 325.83 37.0835 325.007 36.1822C324.195 35.2698 323.855 34.1626 323.989 32.8608C324.122 31.5923 324.695 30.5075 325.708 29.6062C326.732 28.7049 327.894 28.2543 329.196 28.2543C330.431 28.2543 331.461 28.7049 332.284 29.6062C333.118 30.5075 333.469 31.5923 333.335 32.8608C333.246 33.7287 332.94 34.5187 332.417 35.2308C331.906 35.9318 331.271 36.4937 330.515 36.9165C329.769 37.3282 328.996 37.5341 328.195 37.5341ZM346.921 37.3338C345.097 37.3338 343.494 36.8554 342.115 35.8984C340.746 34.9415 339.761 33.4895 339.16 31.5423C338.571 29.5951 338.521 27.1416 339.01 24.1818C339.522 21.0885 340.418 18.5739 341.697 16.6378C342.988 14.7017 344.468 13.283 346.137 12.3817C347.817 11.4805 349.503 11.0298 351.194 11.0298C352.463 11.0298 353.536 11.2524 354.415 11.6974C355.305 12.1314 356.012 12.7156 356.535 13.4499C357.058 14.1732 357.414 14.9687 357.603 15.8366H357.737L359.906 2.81818H369.119L363.445 37H354.298L354.999 32.794H354.799C354.298 33.6619 353.659 34.4408 352.88 35.1307C352.112 35.8094 351.227 36.3491 350.226 36.7496C349.225 37.1391 348.123 37.3338 346.921 37.3338ZM351.494 30.2571C352.34 30.2571 353.108 30.0123 353.798 29.5227C354.488 29.022 355.072 28.321 355.55 27.4197C356.029 26.5073 356.368 25.428 356.568 24.1818C356.78 22.9134 356.796 21.8285 356.618 20.9272C356.44 20.0148 356.084 19.3194 355.55 18.8409C355.027 18.3513 354.343 18.1065 353.497 18.1065C352.652 18.1065 351.89 18.3513 351.211 18.8409C350.532 19.3194 349.959 20.0148 349.492 20.9272C349.035 21.8285 348.702 22.9134 348.49 24.1818C348.279 25.4503 348.251 26.5407 348.407 27.4531C348.574 28.3544 348.919 29.0498 349.442 29.5394C349.965 30.0179 350.649 30.2571 351.494 30.2571ZM380.185 37.4673C377.448 37.4673 375.178 36.9444 373.376 35.8984C371.573 34.8414 370.305 33.3281 369.57 31.3587C368.836 29.3781 368.702 27.008 369.17 24.2486C369.615 21.6004 370.533 19.286 371.923 17.3054C373.325 15.3248 375.089 13.7837 377.214 12.6822C379.351 11.5806 381.743 11.0298 384.391 11.0298C386.327 11.0298 388.024 11.3303 389.482 11.9311C390.95 12.532 392.147 13.4054 393.07 14.5515C393.994 15.6976 394.617 17.0829 394.939 18.7074C395.273 20.3208 395.273 22.1456 394.939 24.1818L394.606 26.3182H371.706L372.508 21.2443H386.928C387.039 20.5099 386.967 19.8646 386.711 19.3082C386.466 18.7408 386.071 18.3013 385.526 17.9897C384.992 17.667 384.347 17.5057 383.59 17.5057C382.833 17.5057 382.121 17.667 381.454 17.9897C380.797 18.3124 380.235 18.763 379.768 19.3416C379.312 19.9202 379.006 20.599 378.85 21.3778L377.849 26.7188C377.715 27.5421 377.765 28.2765 377.999 28.9219C378.232 29.5672 378.639 30.0735 379.217 30.4407C379.796 30.8079 380.541 30.9915 381.454 30.9915C382.077 30.9915 382.666 30.908 383.223 30.7411C383.79 30.5631 384.291 30.3072 384.725 29.9734C385.17 29.6284 385.526 29.2112 385.793 28.7216H394.205C393.604 30.5019 392.653 32.0485 391.351 33.3615C390.06 34.6634 388.469 35.6759 386.578 36.3991C384.697 37.1113 382.566 37.4673 380.185 37.4673ZM426.029 11.3636L413.144 37H402.463L398.123 11.3636H407.47L408.805 28.321H409.072L416.015 11.3636H426.029Z" fill="#F5F5F5"/>
<path d="M85.6648 47.6136L91.5732 12.3636H100.719L99.9851 16.8366H100.185C100.653 15.9687 101.265 15.1732 102.021 14.4499C102.789 13.7156 103.69 13.1314 104.725 12.6974C105.771 12.2524 106.928 12.0298 108.197 12.0298C109.888 12.0298 111.418 12.4805 112.787 13.3817C114.155 14.283 115.162 15.7017 115.808 17.6378C116.453 19.5739 116.52 22.0885 116.008 25.1818C115.518 28.1416 114.645 30.5951 113.387 32.5423C112.141 34.4895 110.672 35.9415 108.981 36.8984C107.301 37.8554 105.549 38.3338 103.724 38.3338C102.522 38.3338 101.482 38.1391 100.603 37.7496C99.7236 37.3491 99.017 36.8094 98.483 36.1307C97.9489 35.4408 97.5817 34.6619 97.3814 33.794H97.1811L94.9112 47.6136H85.6648ZM98.4496 25.1818C98.2493 26.428 98.2326 27.5073 98.3995 28.4197C98.5775 29.321 98.928 30.022 99.451 30.5227C99.9851 31.0123 100.675 31.2571 101.521 31.2571C102.366 31.2571 103.123 31.0179 103.79 30.5394C104.458 30.0498 105.026 29.3544 105.493 28.4531C105.96 27.5407 106.305 26.4503 106.528 25.1818C106.728 23.9134 106.745 22.8285 106.578 21.9272C106.411 21.0148 106.071 20.3194 105.56 19.8409C105.048 19.3513 104.369 19.1065 103.523 19.1065C102.678 19.1065 101.904 19.3513 101.203 19.8409C100.514 20.3194 99.9295 21.0148 99.451 21.9272C98.9837 22.8285 98.6499 23.9134 98.4496 25.1818ZM130.007 38.4673C127.225 38.4673 124.933 37.9165 123.13 36.815C121.339 35.7023 120.082 34.1557 119.358 32.1751C118.635 30.1834 118.491 27.8745 118.924 25.2486C119.358 22.6226 120.265 20.3194 121.645 18.3388C123.025 16.3471 124.799 14.8004 126.969 13.6989C129.139 12.5862 131.62 12.0298 134.413 12.0298C137.184 12.0298 139.465 12.5862 141.256 13.6989C143.059 14.8004 144.322 16.3471 145.045 18.3388C145.779 20.3194 145.929 22.6226 145.495 25.2486C145.062 27.8745 144.149 30.1834 142.758 32.1751C141.367 34.1557 139.587 35.7023 137.417 36.815C135.259 37.9165 132.789 38.4673 130.007 38.4673ZM131.142 31.6577C131.943 31.6577 132.672 31.3962 133.328 30.8732C133.996 30.3503 134.563 29.6048 135.031 28.6367C135.509 27.6687 135.86 26.517 136.082 25.1818C136.305 23.8355 136.338 22.6838 136.182 21.7269C136.026 20.7589 135.704 20.0134 135.214 19.4904C134.725 18.9674 134.079 18.706 133.278 18.706C132.477 18.706 131.743 18.9674 131.075 19.4904C130.407 20.0134 129.84 20.7589 129.373 21.7269C128.905 22.6838 128.56 23.8355 128.338 25.1818C128.115 26.517 128.076 27.6687 128.221 28.6367C128.377 29.6048 128.699 30.3503 129.189 30.8732C129.69 31.3962 130.341 31.6577 131.142 31.6577ZM166.659 12.3636L165.524 19.0398H148.633L149.768 12.3636H166.659ZM154.041 6.22159H163.254L159.348 29.755C159.293 30.111 159.304 30.4115 159.382 30.6562C159.46 30.8899 159.616 31.0679 159.849 31.1903C160.094 31.3016 160.417 31.3572 160.817 31.3572C161.084 31.3572 161.412 31.3239 161.802 31.2571C162.191 31.1792 162.486 31.1236 162.687 31.0902L162.954 37.5661C162.486 37.6996 161.858 37.8498 161.068 38.0167C160.289 38.1947 159.382 38.3116 158.347 38.3672C156.188 38.4673 154.43 38.2392 153.073 37.6829C151.727 37.1265 150.792 36.2586 150.269 35.0792C149.757 33.8886 149.668 32.4032 150.002 30.6229L154.041 6.22159ZM178.38 23.5795L175.976 38H166.763L172.438 3.81818H181.317L179.114 17.2372H179.381C180.216 15.6016 181.384 14.3275 182.886 13.4151C184.388 12.4916 186.091 12.0298 187.993 12.0298C189.796 12.0298 191.298 12.4415 192.5 13.2649C193.701 14.0883 194.553 15.2232 195.053 16.6697C195.554 18.1162 195.649 19.7741 195.337 21.6435L192.6 38H183.387L185.79 23.5795C185.99 22.3111 185.829 21.3152 185.306 20.592C184.794 19.8687 183.954 19.5071 182.786 19.5071C182.029 19.5071 181.339 19.674 180.716 20.0078C180.104 20.3305 179.592 20.7978 179.181 21.4098C178.78 22.0107 178.513 22.7339 178.38 23.5795ZM215.574 26.7841L217.977 12.3636H227.191L222.918 38H214.172L214.973 33.1264H214.706C213.916 34.7621 212.737 36.0417 211.168 36.9652C209.61 37.8776 207.874 38.3338 205.96 38.3338C204.169 38.3338 202.672 37.9221 201.471 37.0987C200.269 36.2753 199.418 35.1404 198.917 33.6939C198.416 32.2474 198.316 30.5895 198.617 28.7202L201.354 12.3636H210.567L208.164 26.7841C207.974 28.0526 208.136 29.0484 208.648 29.7717C209.171 30.4949 210.011 30.8565 211.168 30.8565C211.936 30.8565 212.625 30.6952 213.237 30.3725C213.861 30.0387 214.372 29.5714 214.773 28.9705C215.185 28.3585 215.452 27.6297 215.574 26.7841ZM227.604 38L231.876 12.3636H240.822L240.021 17.2372H240.288C241.056 15.4347 242.018 14.1161 243.176 13.2816C244.333 12.4471 245.596 12.0298 246.964 12.0298C247.365 12.0298 247.749 12.0632 248.116 12.13C248.494 12.1856 248.867 12.2635 249.234 12.3636L247.899 20.2415C247.465 20.0746 246.925 19.9577 246.28 19.891C245.635 19.8131 245.062 19.7741 244.561 19.7741C243.671 19.7741 242.836 19.98 242.057 20.3917C241.29 20.7923 240.633 21.3597 240.088 22.0941C239.554 22.8174 239.198 23.6686 239.02 24.6477L236.817 38H227.604ZM253.866 38.4006C252.241 38.4006 250.845 38.1335 249.677 37.5994C248.519 37.0542 247.674 36.2308 247.14 35.1293C246.617 34.0166 246.5 32.6146 246.789 30.9233C247.023 29.5213 247.462 28.3252 248.108 27.3349C248.753 26.3446 249.554 25.5323 250.511 24.8981C251.468 24.2638 252.542 23.7798 253.732 23.446C254.934 23.1011 256.203 22.8786 257.538 22.7784C258.984 22.6671 260.158 22.5281 261.059 22.3611C261.961 22.1942 262.634 21.9661 263.079 21.6768C263.524 21.3875 263.791 20.9981 263.88 20.5085V20.4418C263.98 19.7741 263.802 19.2623 263.346 18.9062C262.901 18.5502 262.278 18.3722 261.477 18.3722C260.609 18.3722 259.858 18.5613 259.223 18.9396C258.6 19.3179 258.172 19.9077 257.938 20.7088H249.46C249.816 19.151 250.544 17.7157 251.646 16.4027C252.759 15.0786 254.233 14.0215 256.069 13.2315C257.916 12.4304 260.119 12.0298 262.678 12.0298C264.503 12.0298 266.105 12.2468 267.485 12.6808C268.865 13.1036 270.005 13.6989 270.907 14.4666C271.819 15.2232 272.459 16.1134 272.826 17.1371C273.204 18.1496 273.293 19.2512 273.093 20.4418L270.156 38H261.543L262.144 34.3949H261.944C261.276 35.3518 260.525 36.1251 259.691 36.7148C258.867 37.3046 257.966 37.733 256.987 38C256.019 38.267 254.979 38.4006 253.866 38.4006ZM257.872 32.5923C258.561 32.5923 259.24 32.4477 259.908 32.1584C260.575 31.8691 261.148 31.4518 261.627 30.9066C262.105 30.3614 262.411 29.6993 262.545 28.9205L262.879 26.7841C262.634 26.8842 262.361 26.9788 262.061 27.0678C261.772 27.1457 261.466 27.2236 261.143 27.3015C260.831 27.3794 260.497 27.4517 260.141 27.5185C259.796 27.5852 259.44 27.652 259.073 27.7188C258.339 27.83 257.721 28.0136 257.221 28.2695C256.72 28.5143 256.33 28.8203 256.052 29.1875C255.774 29.5436 255.602 29.9441 255.535 30.3892C255.435 31.0902 255.596 31.6354 256.019 32.0249C256.453 32.4032 257.07 32.5923 257.872 32.5923ZM278.83 12.3636H288.044L283.604 38.8679C283.226 41.1044 282.458 42.8569 281.301 44.1254C280.143 45.4049 278.669 46.3062 276.878 46.8292C275.097 47.3522 273.078 47.6136 270.819 47.6136C270.541 47.6136 270.263 47.6081 269.985 47.5969C269.695 47.5858 269.384 47.5691 269.05 47.5469L270.185 40.7372C270.374 40.7595 270.558 40.7762 270.736 40.7873C270.914 40.7984 271.086 40.804 271.253 40.804C272.355 40.804 273.133 40.6315 273.59 40.2866C274.046 39.9416 274.335 39.402 274.458 38.6676L278.83 12.3636ZM283.838 9.69318C282.591 9.69318 281.584 9.28149 280.817 8.4581C280.049 7.62358 279.765 6.63328 279.965 5.48722C280.166 4.31889 280.778 3.3286 281.801 2.51633C282.825 1.69294 283.96 1.28125 285.206 1.28125C286.463 1.28125 287.465 1.69294 288.21 2.51633C288.956 3.3286 289.234 4.31889 289.045 5.48722C288.867 6.63328 288.266 7.62358 287.242 8.4581C286.23 9.28149 285.095 9.69318 283.838 9.69318ZM306.958 26.7841L309.361 12.3636H318.574L314.302 38H305.556L306.357 33.1264H306.09C305.3 34.7621 304.12 36.0417 302.552 36.9652C300.994 37.8776 299.258 38.3338 297.344 38.3338C295.553 38.3338 294.056 37.9221 292.854 37.0987C291.653 36.2753 290.802 35.1404 290.301 33.6939C289.8 32.2474 289.7 30.5895 290 28.7202L292.738 12.3636H301.951L299.547 26.7841C299.358 28.0526 299.52 29.0484 300.031 29.7717C300.554 30.4949 301.394 30.8565 302.552 30.8565C303.319 30.8565 304.009 30.6952 304.621 30.3725C305.244 30.0387 305.756 29.5714 306.157 28.9705C306.568 28.3585 306.835 27.6297 306.958 26.7841ZM324.195 38.5341C322.893 38.5341 321.83 38.0835 321.007 37.1822C320.195 36.2698 319.855 35.1626 319.989 33.8608C320.122 32.5923 320.695 31.5075 321.708 30.6062C322.732 29.7049 323.894 29.2543 325.196 29.2543C326.431 29.2543 327.461 29.7049 328.284 30.6062C329.118 31.5075 329.469 32.5923 329.335 33.8608C329.246 34.7287 328.94 35.5187 328.417 36.2308C327.906 36.9318 327.271 37.4937 326.515 37.9165C325.769 38.3282 324.996 38.5341 324.195 38.5341ZM342.921 38.3338C341.097 38.3338 339.494 37.8554 338.115 36.8984C336.746 35.9415 335.761 34.4895 335.16 32.5423C334.571 30.5951 334.521 28.1416 335.01 25.1818C335.522 22.0885 336.418 19.5739 337.697 17.6378C338.988 15.7017 340.468 14.283 342.137 13.3817C343.817 12.4805 345.503 12.0298 347.194 12.0298C348.463 12.0298 349.536 12.2524 350.415 12.6974C351.305 13.1314 352.012 13.7156 352.535 14.4499C353.058 15.1732 353.414 15.9687 353.603 16.8366H353.737L355.906 3.81818H365.119L359.445 38H350.298L350.999 33.794H350.799C350.298 34.6619 349.659 35.4408 348.88 36.1307C348.112 36.8094 347.227 37.3491 346.226 37.7496C345.225 38.1391 344.123 38.3338 342.921 38.3338ZM347.494 31.2571C348.34 31.2571 349.108 31.0123 349.798 30.5227C350.488 30.022 351.072 29.321 351.55 28.4197C352.029 27.5073 352.368 26.428 352.568 25.1818C352.78 23.9134 352.796 22.8285 352.618 21.9272C352.44 21.0148 352.084 20.3194 351.55 19.8409C351.027 19.3513 350.343 19.1065 349.497 19.1065C348.652 19.1065 347.89 19.3513 347.211 19.8409C346.532 20.3194 345.959 21.0148 345.492 21.9272C345.035 22.8285 344.702 23.9134 344.49 25.1818C344.279 26.4503 344.251 27.5407 344.407 28.4531C344.574 29.3544 344.919 30.0498 345.442 30.5394C345.965 31.0179 346.649 31.2571 347.494 31.2571ZM376.185 38.4673C373.448 38.4673 371.178 37.9444 369.376 36.8984C367.573 35.8414 366.305 34.3281 365.57 32.3587C364.836 30.3781 364.702 28.008 365.17 25.2486C365.615 22.6004 366.533 20.286 367.923 18.3054C369.325 16.3248 371.089 14.7837 373.214 13.6822C375.351 12.5806 377.743 12.0298 380.391 12.0298C382.327 12.0298 384.024 12.3303 385.482 12.9311C386.95 13.532 388.147 14.4054 389.07 15.5515C389.994 16.6976 390.617 18.0829 390.939 19.7074C391.273 21.3208 391.273 23.1456 390.939 25.1818L390.606 27.3182H367.706L368.508 22.2443H382.928C383.039 21.5099 382.967 20.8646 382.711 20.3082C382.466 19.7408 382.071 19.3013 381.526 18.9897C380.992 18.667 380.347 18.5057 379.59 18.5057C378.833 18.5057 378.121 18.667 377.454 18.9897C376.797 19.3124 376.235 19.763 375.768 20.3416C375.312 20.9202 375.006 21.599 374.85 22.3778L373.849 27.7188C373.715 28.5421 373.765 29.2765 373.999 29.9219C374.232 30.5672 374.639 31.0735 375.217 31.4407C375.796 31.8079 376.541 31.9915 377.454 31.9915C378.077 31.9915 378.666 31.908 379.223 31.7411C379.79 31.5631 380.291 31.3072 380.725 30.9734C381.17 30.6284 381.526 30.2112 381.793 29.7216H390.205C389.604 31.5019 388.653 33.0485 387.351 34.3615C386.06 35.6634 384.469 36.6759 382.578 37.3991C380.697 38.1113 378.566 38.4673 376.185 38.4673ZM422.029 12.3636L409.144 38H398.463L394.123 12.3636H403.47L404.805 29.321H405.072L412.015 12.3636H422.029Z" fill="url(#paint0_linear_0_1)"/>
<path d="M24.05 41.9167L9.1 28.5L24.05 15.0833L19.5 11L0 28.5L19.5 46L24.05 41.9167ZM40.95 41.9167L55.9 28.5L40.95 15.0833L45.5 11L65 28.5L45.5 46L40.95 41.9167Z" fill="url(#paint1_linear_0_1)"/>
<defs>
<linearGradient id="paint0_linear_0_1" x1="432" y1="23.4396" x2="87" y2="20.5646" gradientUnits="userSpaceOnUse">
<stop stop-color="#FF2D2B"/>
<stop offset="1" stop-color="#0B00CF"/>
</linearGradient>
<linearGradient id="paint1_linear_0_1" x1="-4.46875" y1="28.5" x2="69.4688" y2="28.5" gradientUnits="userSpaceOnUse">
<stop stop-color="#0B00CF"/>
<stop offset="1" stop-color="#FF2D2F"/>
</linearGradient>
</defs>
</svg>
